<?xml version="1.0" standalone="no"?>
<!DOCTYPE svg PUBLIC "-//W3C//DTD SVG 20010904//EN"
 "http://www.w3.org/TR/2001/REC-SVG-20010904/DTD/svg10.dtd">
<svg version="1.0" xmlns="http://www.w3.org/2000/svg"
 width="700.000000pt" height="700.000000pt" viewBox="0 0 700.000000 700.000000"
 preserveAspectRatio="xMidYMid meet">
<metadata>
Created by potrace 1.11, written by Peter Selinger 2001-2013
</metadata>
<g transform="translate(0.000000,700.000000) scale(0.100000,-0.100000)"
fill="#000000" stroke="none">
<path d="M3280 6405 l0 -144 -32 -17 c-17 -9 -233 -133 -480 -275 -246 -143
-462 -268 -480 -278 -18 -10 -121 -69 -228 -132 -107 -62 -249 -143 -315 -181
-66 -38 -127 -73 -135 -78 -8 -6 -42 -25 -75 -43 -33 -19 -111 -64 -174 -100
-62 -37 -115 -67 -117 -67 -2 0 -38 20 -80 45 -41 25 -77 45 -79 45 -2 0 -61
34 -132 76 -70 42 -145 85 -165 95 l-38 19 0 -1605 0 -1605 63 -1 c34 0 89 -1
122 -2 l60 -2 0 -67 0 -66 134 -79 c74 -43 140 -80 145 -82 6 -2 28 -15 50
-28 21 -14 98 -59 170 -100 157 -91 661 -381 1101 -636 176 -101 336 -193 355
-204 130 -74 307 -177 318 -186 8 -7 12 -49 12 -148 l0 -139 253 0 c139 0 257
4 263 9 5 5 97 59 204 121 107 62 283 163 390 225 186 107 265 153 488 281 53
31 113 66 132 77 46 25 275 159 320 186 19 11 42 24 50 28 8 4 47 26 85 48 39
23 90 53 115 67 25 14 142 82 261 150 l216 125 117 -68 c65 -38 121 -67 125
-65 5 4 7 3449 2 3478 -1 5 -348 209 -446 263 -11 5 -31 18 -45 26 -27 17
-525 306 -600 347 -25 14 -62 36 -82 49 -21 12 -39 23 -41 23 -2 0 -107 60
-233 133 -126 74 -249 145 -274 159 -65 37 -500 288 -535 309 -16 10 -46 27
-65 37 -19 10 -71 41 -115 68 l-80 49 -252 2 -253 2 0 -144z"/>
</g>
</svg>
